<?xml version="1.0" ?><!DOCTYPE svg  PUBLIC '-//W3C//DTD SVG 1.1//EN'  'http://www.w3.org/Graphics/SVG/1.1/DTD/svg11.dtd'><svg enable-background="new 0 0 100 100" height="100px" id="Layer_1" version="1.1" viewBox="0 0 100 100" width="100px" xml:space="preserve" xmlns="http://www.w3.org/2000/svg" xmlns:xlink="http://www.w3.org/1999/xlink"><g><circle cx="50" cy="23" r="3"/><path d="M53,58.5h-6c-1.381,0-2.5,1.119-2.5,2.5s1.119,2.5,2.5,2.5h6c1.381,0,2.5-1.119,2.5-2.5S54.381,58.5,53,58.5z"/><path d="M78,87.5h-5c-4.136,0-7.5-3.364-7.5-7.5v-8.712c2.807-2.664,4.943-6.048,6.076-9.899C77.726,60.61,82.5,55.357,82.5,49   c0-6.037-4.301-11.087-10-12.248V30c0-6.007-2.341-11.656-6.592-15.908C61.656,9.841,56.007,7.5,50,7.5   C37.593,7.5,27.5,17.593,27.5,30v6.752c-5.699,1.161-10,6.211-10,12.248c0,6.361,4.78,11.617,10.934,12.391   c1.054,3.577,2.98,6.838,5.658,9.517c0.131,0.131,0.274,0.243,0.408,0.37V80c0,4.136-3.364,7.5-7.5,7.5h-5   c-1.381,0-2.5,1.119-2.5,2.5s1.119,2.5,2.5,2.5h5c6.893,0,12.5-5.607,12.5-12.5v-5.096C42.699,76.598,46.28,77.5,50,77.5   c3.763,0,7.34-0.956,10.5-2.63V80c0,6.893,5.607,12.5,12.5,12.5h5c1.381,0,2.5-1.119,2.5-2.5S79.381,87.5,78,87.5z M72.5,55V41.938   c2.908,1.033,5,3.804,5,7.063c0,3.278-2.117,6.065-5.053,7.082C72.464,55.721,72.5,55.364,72.5,55z M22.5,49   c0-3.258,2.092-6.03,5-7.063V55c0,0.364,0.036,0.721,0.053,1.082C24.617,55.064,22.5,52.278,22.5,49z M67.5,36.5h-9V35   c0-1.18,1.924-2.5,4.5-2.5s4.5,1.32,4.5,2.5V36.5z M32.5,35c0-0.858,2.336-2.5,6-2.5s6,1.642,6,2.5v1.5h-12V35z M50,72.5   c-4.671,0-9.065-1.821-12.372-5.127c-2.462-2.462-4.117-5.549-4.789-8.944C32.614,57.33,32.5,56.176,32.5,55V41.5h12V52   c0,1.381,1.119,2.5,2.5,2.5h6c1.381,0,2.5-1.119,2.5-2.5s-1.119-2.5-2.5-2.5h-3.5V35c0-4.206-4.832-7.5-11-7.5   c-2.203,0-4.229,0.426-5.932,1.158C33.258,19.635,40.804,12.5,50,12.5c4.671,0,9.065,1.821,12.372,5.127   c2.911,2.912,4.668,6.667,5.047,10.711C66.105,27.804,64.607,27.5,63,27.5c-5.327,0-9.5,3.294-9.5,7.5v4c0,1.381,1.119,2.5,2.5,2.5   h11.5V55c0,1.176-0.114,2.33-0.342,3.443C65.542,66.588,58.326,72.5,50,72.5z"/></g><g><path d="M30,92.5"/></g></svg>